<svg xmlns="http://www.w3.org/2000/svg" viewBox="0 0 1500 1132.01"><path d="M717.44 662.23c6.96 2.56 13 4.54 18.82 7.1 1.33.58 2.27 3 2.6 4.72 2.63 13.3 5.46 26.56 7.46 39.95 2.9 19.42 3.5 39.03 2.87 58.64-2.48 77.63-26.54 147.95-73.16 210.02-55.76 74.25-129.5 121.23-220.23 141.06-35.12 7.67-70.76 9.3-106.64 7.24-49.9-2.85-97.53-14.63-141.96-37.4-107.03-54.8-174.8-141-199.12-258.82-20.12-97.47-2.66-189.5 51.62-273.3 55.7-86 134.52-139.6 234.48-161.8 34.88-7.74 70.33-9.3 106-7.3 53.48 3 103.9 16.9 151.3 41.72 30.33 15.88 57.84 35.74 82.7 59.27a139.86 139.86 0 0 1 3.68 3.63c.3.3.45.72.86 1.4-4.1 2.76-8.9 3.84-13.43 5.52-2.6.97-3.84-1.2-5.45-2.54-13.4-11.14-26.24-23.07-40.35-33.23-48.8-35.12-103.2-56.78-162.95-63.88-94.4-11.22-179.07 14.05-254.9 70.3-34.78 25.8-63.5 57.5-86.65 94.05-27.67 43.7-45.16 91.2-52.4 142.5-17.6 124.55 30.36 247 124.82 326.4 51.47 43.27 110.47 70.4 177.03 80.4 86.6 13 166.8-5.62 239.97-52.53 81.37-52.17 133.7-126.06 156.7-220.1 14.35-58.64 13.06-117.34-1.97-175.77-.53-2-.95-4.05-1.7-7.25zm65.8-192.28c-6.9-2.53-12.75-4.43-18.35-6.9-1.37-.6-2.5-2.9-2.8-4.6-3.1-17.14-6.68-34.23-8.76-51.5-2.96-24.65-2.63-49.46-.1-74.16 4.97-48.3 18.18-94.26 41.4-136.93 51.8-95.16 129.87-157.46 234.95-185 38.22-10 77.25-12.3 116.64-10.07 47.47 2.68 92.93 13.58 135.4 34.8 108.14 54.03 175.9 140.47 201.4 258.5 19.43 89.98 6.2 176.33-38.77 256.7C1393.8 641 1318.2 700.4 1218.3 728c-39.8 11-80.5 13.72-121.64 11.43-51.05-2.84-99.27-15.9-144.75-39.16-31.86-16.3-60.6-36.98-86.43-61.73-1.23-1.18-2.35-2.47-4.27-4.5l15.54-5.84c1.46 1.26 2.96 2.43 4.33 3.73 50.47 47.95 109.74 79.04 178.1 92.38 67.56 13.18 132.95 4.93 195.93-22.03 68.97-29.52 123.1-76.7 162.97-140.16 27.18-43.25 44.13-90.35 51.03-140.96 16.7-122.6-26.46-240.88-118.12-322.43-51.3-45.65-111.04-74.53-179.05-84.64-102.25-15.2-193.02 12.7-272.1 77.78-67.94 55.92-108.9 128.52-124.54 215.06-9.44 52.23-6.95 104.2 6.28 155.6.54 2.02.93 4.05 1.67 7.42zm-.18 192.6l-4.5 19.2c-41.7 185.57 66.72 370.78 248.9 425.16 38.93 11.62 78.8 16.85 119.3 14.3 54.78-3.46 106.32-18.87 153.66-46.72 89.3-52.52 147.5-129.03 171.55-229.9 21.38-89.73 9-175.7-34.88-256.96l-4.04-7.43c.8-1.42 1.5-2.75 2.3-4l7.4-11.5c1.4 1.92 2.57 3.34 3.52 4.9 23.15 38.1 38.87 79.08 47.16 122.88 6.4 33.84 8.3 67.97 4.95 102.24-8.76 89.54-44.8 166.46-108.73 229.8-54.8 54.3-120.58 88.25-196.65 101.22-85.15 14.52-167.25 4.5-243.76-36.75-102.44-55.23-166.18-140.54-190.56-254.44-11.24-52.52-9.54-105.24 2.3-157.64 1.17-5.2 3.33-8.35 8.7-9.6 4.15-.96 8.1-2.82 13.4-4.74zM523.6 584.98v-37.33l7.05 2.35 212.77 77.64c5.18 1.9 9.63 1.82 14.78-.08l212.08-77.67c2.2-.8 4.4-1.5 7.67-2.6l.05 37.4c-1.6.76-3.06 1.6-4.6 2.16l-218.13 79.93c-3.28 1.2-6.05 1.1-9.27-.07L528.47 587c-1.6-.58-3.15-1.3-4.87-2.02zm9.44-41.9l53.28-19.55 158.2-57.95c4-1.47 7.52-1.85 11.73-.3l206.06 75.58c2 .73 3.96 1.53 6.98 2.7-2.5 1.16-4.1 2.05-5.82 2.67l-40.04 14.56c-4.1 1.55-7.7 1.46-11.78-.05L757.8 504.07c-4.96-1.84-9.23-1.84-14.18 0l-154.47 56.87c-3.86 1.42-7.2 1.62-11.1.13L538 546.5c-1.74-.63-3.43-1.43-5.14-2.15l.17-1.28zm600.7-141.7h-14.8c-1.5 0-3.02.17-4.5-.05-2.6-.4-4.4-1.93-4.4-4.67-.01-2.42 1.54-3.92 3.88-4.47 1.03-.24 2.12-.37 3.18-.35l34.06.78c3.78.13 5.8 2.03 5.77 4.7-.02 2.9-2.27 4.5-6.5 4.53l-16.7.01v-.47zm270.82 115.96c-.12 4.67-3.76 6.7-6.9 4.75-1.24-.77-2.2-2-3.26-3.05l-21.73-21.85c-1.05-1.06-2.27-2.05-2.98-3.3-1.15-2.04-1.13-4.5 1-5.7 1.4-.8 3.58-.7 5.3-.4 1.1.2 2.06 1.46 2.96 2.36l22.58 22.82c1.42 1.46 2.36 3.37 3.04 4.37zm-310.83-124.37c4.07.08 6.53 1.68 6.7 4.64.15 2.63-1.8 4.58-5.5 5.1l-34.38 4.68c-3.88.5-5.95-.68-6.47-3.48-.56-3 1.15-5.14 5.34-5.8l34.32-5.14zm-153.08 58.62c-.48.65-1.2 2.3-2.45 3.2l-29.6 20.5c-3.1 2.1-5.65 1.7-7.26-.8-1.78-2.78-.62-5.04 1.7-6.65l30.18-20.77c3.58-2.36 7.37-.3 7.43 4.5zm265.8-41.85l-7.85-1.54-24.73-4c-5.63-.85-7.93-2.7-7.22-6.1.64-3.1 3.04-4.1 8.43-3.22l31.02 5.32c1.06.18 2.15.3 3.14.65 2.48.9 4.05 2.67 3.5 5.4-.55 2.67-2.57 3.78-6.28 3.5zm123.2 42.5c.83.4 2.28.88 3.45 1.73l27.44 20.22c.85.63 2.03 1.35 2.23 2.22.4 1.7.75 3.8.1 5.27-.98 2.24-3.3 2.48-5.55 1.6-.78-.3-1.5-.84-2.18-1.34l-27.92-20.65c-.84-.63-1.7-1.38-2.22-2.27-1.8-3 .5-6.8 4.64-6.77zm-338.8-26.15c-.68.7-1.7 2.43-3.22 3.2l-32.38 15.66c-3.07 1.45-5.48.76-6.74-1.48s-.66-5.14 2.12-6.53c11.1-5.55 22.28-10.97 33.57-16.13 3.63-1.65 6.8.66 6.65 5.3zm235.3-20.9l4.67 1.18 30.4 10.27c4.83 1.7 6.26 3.75 5.4 6.6-1 3.25-3.63 3.88-8.6 2.2l-29.8-10c-1.22-.4-2.5-.7-3.62-1.28-2.14-1.13-3.34-3.2-2.3-5.33.8-1.6 2.76-2.64 3.86-3.62zm-187.3-2.5c3.08-.24 5.1.82 5.7 3.5.63 2.75-.98 4.5-3.4 5.42-1.8.68-3.72 1-5.56 1.55l-25.2 7.62-4.26 1.4c-3.28.78-5.52-.2-6.36-2.65-.86-2.52.22-4.76 3.16-6.1 1.75-.8 3.6-1.4 5.44-1.95l26.43-7.96c1.43-.4 2.93-.6 4.03-.85zm241.24 22.2c.85.3 2.32.65 3.62 1.32l29.6 15.44c1.12.6 2.52 1.26 3 2.27.68 1.4 1.34 3.6.7 4.63-.84 1.34-2.9 2.3-4.57 2.58-1.25.2-2.78-.87-4.1-1.55l-28.45-14.86c-1.64-.87-3.47-1.97-4.4-3.47-1.72-2.76.62-6.2 4.58-6.36zm-404.5 78.9l-9.4-3.48c7.07-7.43 14-13.73 21.22-19.74 2.08-1.73 4.37-1.74 6.38.28 1.92 1.93 1.9 4.55-.5 6.82-5.63 5.33-11.45 10.44-17.72 16.12zM63.76 544.68L53.4 560.5l-4.05-6.62c-24.87-43.54-40.3-90.18-46.2-140-22.3-188.1 100.82-362.8 285.33-404.63 37-8.4 74.48-10.6 112.32-8.43C454.27 3.9 505 17.28 551.95 42.9c101.93 55.6 165.75 140.43 190.1 254.06 11.44 53.38 9.76 106.94-2.85 160.13-1.04 4.38-2.92 6.72-7.13 7.9-4.34 1.23-8.52 3-12.78 4.5-.37.13-.82.02-1.73.02.34-1.88.55-3.74 1.03-5.52 9.54-35.4 13.65-71.44 12.14-108.03C724.46 203.07 625.4 79.22 493.96 31.3c-23.34-8.5-47.32-14.7-71.88-17.9-23.7-3.1-47.56-4.2-71.52-2.38-71.63 5.4-135.8 30.38-192.16 74.52-72.68 56.9-117.83 131.17-133.9 222.1-14.32 81.12-1.8 158.54 36.57 231.62.9 1.7 1.7 3.45 2.68 5.42zM323.93 737.6l-24.33-4.22c-3.58-.65-7.15-1.4-10.68-2.32-3.6-.94-5.27-3.17-4.68-5.8.62-2.74 2.82-3.97 6.6-3.32l34.16 6.1a10.82 10.82 0 0 1 1.25.3c3.17 1 4.6 2.97 4.02 5.55-.5 2.3-2.4 3.62-6.34 3.7zm132.37-6.32c-1.13-1.17-3.02-2.36-3.75-4.05-.98-2.25.52-4.1 2.66-5.12.95-.46 2.02-.7 3.04-1l30.83-8.96c1.03-.3 2.05-.68 3.1-.83 2.42-.35 4.24.6 5.07 2.92.82 2.3.1 4.22-1.98 5.53a9.61 9.61 0 0 1-2.34 1.04l-33.3 9.64-3.32.83zm-316.95-85.1c.78.45 2.14 1.06 3.3 1.93l27.2 20.52c1 .76 2.43 1.7 2.56 2.7.23 1.72.12 3.95-.83 5.22-.74 1-3.03 1.28-4.54 1.1-1.36-.17-2.66-1.32-3.85-2.2l-25.13-18.98c-1.34-1.02-2.74-2.2-3.56-3.63-1.78-3.1.7-6.85 4.85-6.64zm266.5 93.03l-4.5.2c-2.7-.07-4.6-1.35-4.8-4.14-.2-2.76 1.45-4.5 4.05-4.95 2.95-.5 5.97-.48 8.94-.87l24.17-3.3c1.48-.2 2.97-.54 4.46-.53 2.35.01 4.2 1 4.67 3.5.53 2.76-.75 4.63-3.3 5.44-1.82.57-3.76.78-5.67 1.05l-27.96 3.9-.05-.33zm154.7-50.33c-1.13-1-2.9-1.87-3.4-3.2s-.08-3.36.65-4.68c.65-1.2 2.24-1.9 3.48-2.73L586.84 661l2.1-1.5c2.4-1.65 4.77-2 6.9.36 1.85 2.05 1.43 5.08-1.44 7.18-7.1 5.17-14.35 10.13-21.6 15.1-2.83 1.93-5.8 3.66-8.75 5.4-.9.52-1.96.76-3.5 1.34zM269.47 726c-4.25-1.32-8.38-2.47-12.42-3.88l-21.12-7.7c-1.4-.52-3.18-1.02-3.85-2.1-.9-1.45-1.6-3.8-1-5.13s2.8-2.23 4.48-2.67c1.04-.27 2.4.64 3.62 1.06l29.7 10.37c1 .35 2.03.67 3.03 1.07 2.6 1.04 3.6 3.04 2.9 5.66-.73 2.7-2.87 3.5-5.35 3.32zm279.85-31.7c-.76.8-1.76 2.64-3.28 3.38l-32.52 15.3c-3.43 1.54-6.08.4-7.1-2.14-1-2.55.17-4.87 3.6-6.5l31.34-14.8c3.98-1.98 7.93-.38 7.95 4.75z"/><path d="M362.3 731.26l19.64.05c3.1.1 5.22 2.3 4.9 4.76-.33 2.65-1.96 4.2-4.7 4.38l-.64.04-35.33-.8c-.43-.01-.85-.13-1.27-.17-2.95-.32-4.85-1.82-4.9-4.9-.04-2.7 2.3-4.38 5.97-4.4 1.7-.02 3.42.2 5.13.32l11.2.7zm-177.95-52.7l5.1 2.5L217.32 696c1.13.6 2.72 1.03 3.22 2 .8 1.56 1.64 3.84 1.04 5.18-.6 1.3-2.9 2.12-4.6 2.5-1.06.24-2.47-.6-3.6-1.18l-29.57-15.85c-1.1-.6-2.52-1.36-2.93-2.38-.57-1.45-.88-3.47-.28-4.78.58-1.3 2.45-2 3.73-2.94zM128.9 637.4c-.2 4.37-3.48 6.38-6.55 4.86-1.3-.65-2.46-1.73-3.5-2.8l-22.06-22.7c-.75-.77-1.5-1.58-2.08-2.46-1.48-2.2-1.7-4.5.38-6.4 2.07-1.9 4.33-1.57 6.4.15.66.55 1.2 1.24 1.8 1.86l22.44 23.22c1.4 1.47 2.46 3.28 3.18 4.27zm505.74-5.4l-11.92 11.65c-3.94 3.65-7.96 7.23-12.16 10.58-2.6 2.07-5.25 1.74-6.9-.27-1.6-1.96-1.4-4.62 1-6.86a763.93 763.93 0 0 1 18.7-16.8c.94-.82 2.77-1.2 4-.96 2.26.46 4.38 1.55 7.26 2.65zM70.72 584.13l5.34-8.54 13.18 17.56c1.73 2.32 2.08 4.74-.2 6.92-2 1.9-4.96 1.5-7.22-1.3-3.74-4.65-7.23-9.5-11.1-14.65zm1349.46-33.83l-11.37-14.63c-1.5-2.06-1.53-4.46.48-6.4 1.8-1.75 4.75-1.6 6.8.75 3.08 3.53 5.85 7.32 9.05 11.4l-4.95 8.9zM61.3 540.23L50.72 555.9l-3.95-6.68c-24.25-43.9-39.02-90.75-44.22-140.66-19.6-188.4 105.98-361.33 291.07-400.52C330.73.2 368.24-1.5 406.05 1.22 459.47 5.05 510 19.15 556.6 45.44c101.13 57.06 163.74 142.8 186.48 256.75 10.68 53.53 8.24 107.06-5.13 160.07-1.1 4.36-3.02 6.68-7.24 7.8-4.35 1.16-8.56 2.88-12.84 4.32-.37.12-.82.01-1.73-.01.37-1.88.6-3.73 1.1-5.5 10.04-35.26 14.66-71.24 13.68-107.85C726.8 208.06 629.52 82.8 498.77 33c-23.2-8.84-47.1-15.37-71.62-18.92-23.65-3.42-47.5-4.87-71.48-3.4-71.7 4.4-136.22 28.44-193.2 71.77C89 138.34 42.8 211.95 25.44 302.66c-15.48 80.9-4.04 158.5 33.27 232.12.86 1.7 1.65 3.46 2.6 5.45zm257.4 196.6l-24.26-4.57c-3.57-.7-7.13-1.5-10.64-2.47-3.6-1-5.23-3.24-4.6-5.85.66-2.73 2.88-3.93 6.65-3.22l34.07 6.6c.42.08.84.18 1.25.32 3.15 1.05 4.54 3.03 3.94 5.6-.54 2.28-2.5 3.58-6.42 3.6z"/><path d="M451.15 732.4c-1.1-1.18-3-2.4-3.7-4.1-.94-2.27.58-4.1 2.74-5.1.96-.45 2.03-.67 3.06-.96l30.96-8.52c1.03-.28 2.06-.65 3.1-.8 2.42-.32 4.23.66 5.03 3 .8 2.3.05 4.22-2.06 5.5-.73.44-1.54.8-2.35 1l-33.45 9.16-3.35.8zm-315.7-89.62c.77.46 2.13 1.1 3.28 1.98l26.9 20.9c1 .78 2.4 1.73 2.52 2.74.2 1.72.07 3.95-.9 5.2-.75.98-3.05 1.24-4.55 1.02-1.36-.2-2.64-1.35-3.82-2.26L134 653.03c-1.33-1.04-2.7-2.24-3.5-3.68-1.73-3.12.8-6.83 4.94-6.57zM400.6 739.6l-4.5.14c-2.7-.1-4.57-1.42-4.75-4.2-.18-2.76 1.52-4.48 4.12-4.9 2.95-.46 5.98-.4 8.95-.74l24.2-2.94c1.5-.18 2.98-.5 4.46-.47 2.35.04 4.18 1.05 4.62 3.58.5 2.76-.82 4.62-3.4 5.4-1.83.55-3.77.73-5.68.97l-28.02 3.5c0-.1-.02-.22-.03-.33zM556 691.48c-1.12-1.02-2.9-1.9-3.36-3.26-.47-1.34-.03-3.36.72-4.68.67-1.18 2.27-1.86 3.52-2.68l25.8-16.88 2.1-1.47c2.4-1.62 4.8-1.93 6.9.45 1.82 2.08 1.36 5.1-1.54 7.16-7.17 5.07-14.5 9.93-21.8 14.78-2.85 1.9-5.84 3.58-8.82 5.28-.9.5-1.97.74-3.52 1.3zm-291.58 32.98c-4.23-1.38-8.34-2.6-12.36-4.06l-21-8c-1.38-.54-3.17-1.07-3.82-2.16-.87-1.46-1.54-3.8-.93-5.15.6-1.32 2.84-2.2 4.52-2.6 1.05-.26 2.4.68 3.6 1.12L264 714.4c1 .37 2.02.7 3 1.1 2.58 1.07 3.57 3.1 2.83 5.7-.8 2.7-2.94 3.46-5.4 3.24zm280.28-27.72c-.77.8-1.8 2.6-3.33 3.33l-32.73 14.83c-3.45 1.5-6.1.3-7.06-2.24-.98-2.56.24-4.87 3.7-6.45l31.55-14.34c4-1.9 7.93-.25 7.88 4.87zm-187.54 34.3l19.64.33c3.1.13 5.2 2.38 4.84 4.83-.37 2.65-2.02 4.16-4.77 4.3l-.64.03-35.3-1.3c-.43-.02-.85-.14-1.27-.2-2.94-.36-4.83-1.9-4.83-4.96 0-2.7 2.36-4.35 6.04-4.33 1.7.01 3.42.26 5.12.4l11.18.87zM179.98 675.8l5.06 2.58 27.65 15.34c1.12.62 2.7 1.07 3.2 2.04.78 1.57 1.58 3.87.96 5.2-.6 1.3-2.92 2.08-4.62 2.43-1.06.22-2.46-.62-3.57-1.23L179.3 685.9c-1.1-.62-2.5-1.4-2.9-2.42-.55-1.46-.83-3.5-.2-4.8.6-1.28 2.47-1.95 3.77-2.87zm-54.86-41.95c-.25 4.36-3.57 6.33-6.62 4.77-1.3-.66-2.44-1.76-3.46-2.84l-21.74-23c-.74-.78-1.46-1.6-2.05-2.5-1.45-2.23-1.64-4.52.47-6.4 2.1-1.88 4.35-1.5 6.4.24.65.56 1.18 1.26 1.77 1.88l22.1 23.54c1.4 1.5 2.4 3.33 3.12 4.32zm505.78 1.82l-12.08 11.48c-4 3.6-8.07 7.1-12.3 10.4-2.62 2.03-5.27 1.66-6.9-.37-1.58-2-1.33-4.64 1.1-6.84 6.22-5.6 12.53-11.14 18.94-16.53.96-.8 2.78-1.17 4.02-.9 2.23.5 4.33 1.62 7.2 2.76zm-563.2-55.9l5.46-8.46 12.93 17.75c1.7 2.35 2 4.77-.3 6.9-2.02 1.88-4.98 1.44-7.2-1.4-3.68-4.7-7.1-9.6-10.9-14.8zm611.13-.58c-1.45-.42-3.43-.45-4.45-1.45-1-1-1.5-3-1.4-4.52.08-1.35 1.22-2.67 1.98-3.95l15.76-26.5 1.25-2.25c1.45-2.52 3.46-3.84 6.4-2.62 2.55 1.06 3.47 3.98 1.76 7.1-4.2 7.7-8.65 15.3-13.1 22.86-1.73 2.95-3.67 5.8-5.6 8.62-.6.86-1.45 1.54-2.6 2.7z"/><path d="M700.4 525.74c.18 1.57 1.08 2.8 2.52 3.48 2.35 1.1 4.9.28 6.35-2.7l2.3-4.9-11.16 4.1zm-31.32 68.1l.4-.5c1.06-1.32 1.18-3.4 1.53-4.46-2.2-4.62-6.46-4.38-9.22-.9l-1.98 2.46 9.28 3.4zm11.66-44.1l.9-1.52c-3-4.24-6.14-8.4-9.37-12.53l-15.6 5.78c.47 1.07.62 1.74 1 2.23 5.06 6.7 9.88 13.54 14.47 20.53l8.6-14.5zm9.93 11.88a325.56 325.56 0 0 0-5.88-8.9l-9.64 16.22 5.32 8.63c.36-.36.68-.7.94-1.1 1.93-2.83 3.87-5.66 5.6-8.62l3.66-6.24zm3 4.8l-2.33 3.98c-1.73 2.96-3.65 5.77-5.5 8.5l-.28.42c-.68 1-1.44 1.73-2.17 2.44l-.3.3c3.4 5.9 6.66 11.88 9.74 17.98.64 1.26 1.68 2.75 2.9 3.23 6.7 2.66 13.5 5.04 20.3 7.5a304.07 304.07 0 0 0-22.34-44.34zm129.86-15.15c1.45.42 3.43.45 4.45 1.45 1 1 1.5 3 1.4 4.52-.08 1.35-1.22 2.67-1.98 3.95l-15.76 26.5-1.25 2.25c-1.45 2.52-3.46 3.84-6.4 2.62-2.55-1.06-3.47-3.98-1.76-7.1 4.2-7.7 8.65-15.3 13.1-22.86 1.73-2.95 3.67-5.8 5.6-8.62.6-.85 1.45-1.53 2.6-2.7zm-21.57 53.47c-.18-1.57-1.08-2.8-2.52-3.48-2.35-1.1-4.9-.28-6.35 2.7l-2.3 4.9 11.16-4.1zm31.32-68.1l-.4.5c-1.06 1.32-1.18 3.4-1.53 4.46 2.2 4.62 6.46 4.38 9.22.9l1.98-2.46-9.28-3.4z"/><path d="M811.03 560.08c1.73-2.96 3.65-5.77 5.5-8.5l.28-.42a9.99 9.99 0 0 1 .67-.87c-3.8-6.64-7.43-13.4-10.82-20.3-.63-1.3-1.56-2.9-2.74-3.37-6.67-2.7-13.45-5.1-20.2-7.62l-.86 1.17c7.12 16.04 15.2 31.5 24.4 46.35l3.76-6.45zm9.2-5.05l-4.9 7.58-5.07 8.7a347.57 347.57 0 0 0 5.87 8.85l9.6-16.14-5.5-8.98zm21.26 32.1c-4.44-6.02-8.68-12.17-12.75-18.4l-9.47 15.93a346.75 346.75 0 0 0 7.99 10.83l15.5-5.75c-.7-1.47-.9-2.1-1.26-2.6z"/></svg>